<?xml version="1.0" encoding="UTF-8" standalone="no"?><!-- Generator: Gravit.io --><svg xmlns="http://www.w3.org/2000/svg" xmlns:xlink="http://www.w3.org/1999/xlink" style="isolation:isolate" viewBox="0 0 600 600" width="600pt" height="600pt"><defs><clipPath id="_clipPath_3mfhe97OAAe59yvHBMRHWJNTwv1goHZI"><rect width="600" height="600"/></clipPath></defs><g clip-path="url(#_clipPath_3mfhe97OAAe59yvHBMRHWJNTwv1goHZI)"><rect width="600" height="600" style="fill:rgb(210,210,210)"/><g opacity="0.41"><linearGradient id="_lgradient_0" x1="0" y1="0.5" x2="1" y2="0.5" gradientTransform="matrix(290.5,0,0,201,183,189)" gradientUnits="userSpaceOnUse"><stop offset="0%" stop-opacity="1" style="stop-color:rgb(38,19,55)"/><stop offset="72.17391304347827%" stop-opacity="1" style="stop-color:rgb(68,181,166)"/><stop offset="79.56521739130434%" stop-opacity="1" style="stop-color:rgb(217,198,198)"/></linearGradient><path d=" M 321.113 242.856 C 309.509 239.298 296.832 237.342 283.558 237.342 C 228.058 237.342 183 271.544 183 313.671 C 183 355.798 228.058 390 283.558 390 C 319.19 390 350.519 375.902 368.386 354.662 C 376.571 357.778 385.376 359.468 394.544 359.468 C 438.121 359.468 473.5 321.276 473.5 274.234 C 473.5 227.192 438.121 189 394.544 189 C 361.228 189 332.703 211.323 321.113 242.856 Z " fill-rule="evenodd" fill="url(#_lgradient_0)"/></g><defs><linearGradient id="_lgradient_1" x1="0" y1="0.5" x2="1" y2="0.5"><stop offset="0%" style="stop-color:#8BC6DF"/><stop offset="72.60869565217392%" style="stop-color:#7840BD"/></linearGradient><linearGradient id="_lgradient_2" x1="0" y1="0.5" x2="1" y2="0.5"><stop offset="0%" style="stop-color:#8BC6DF"/><stop offset="72.60869565217392%" style="stop-color:#7840BD"/></linearGradient></defs><g style="mix-blend-mode:normal;" opacity="0.25"><path d="M 457 328 L 507 328 C 605.793 328 686 408.207 686 507 L 686 507 C 686 605.793 605.793 686 507 686 L 457 686 C 358.207 686 278 605.793 278 507 L 278 507 C 278 408.207 358.207 328 457 328 Z" style="stroke:none;fill:url(#_lgradient_2);stroke-miterlimit:10;"/></g><defs><linearGradient id="_lgradient_3" x1="0" y1="0.5" x2="1" y2="0.5"><stop offset="0%" style="stop-color:#8BC6DF"/><stop offset="72.60869565217392%" style="stop-color:#7840BD"/></linearGradient><linearGradient id="_lgradient_4" x1="0" y1="0.5" x2="1" y2="0.5"><stop offset="0%" style="stop-color:#8BC6DF"/><stop offset="72.60869565217392%" style="stop-color:#7840BD"/></linearGradient></defs><g style="mix-blend-mode:normal;" opacity="0.38"><path d="M 587 53 L 637 53 C 735.793 53 816 133.207 816 232 L 816 232 C 816 330.793 735.793 411 637 411 L 587 411 C 488.207 411 408 330.793 408 232 L 408 232 C 408 133.207 488.207 53 587 53 Z" style="stroke:none;fill:url(#_lgradient_4);stroke-miterlimit:10;"/></g><g><rect x="263.541" y="255.707" width="44.666" height="70.369" transform="matrix(1,0,0,1,0,0)" fill="rgb(204,204,204)"/><path d=" M 240.802 431.915 L 218.062 431.915 L 215.626 404.454 L 243.238 404.454 L 240.802 431.915 L 240.802 431.915 Z " fill="rgb(57,101,176)"/><path d=" M 286.463 412.024 L 285.696 426.804 C 285.625 428.158 285.973 429.488 286.65 430.454 C 287.327 431.419 288.267 431.926 289.228 431.844 L 294.617 431.384 C 295.122 431.341 295.588 430.983 295.887 430.408 C 296.187 429.832 296.289 429.099 296.166 428.407 L 293.175 411.551 L 286.463 412.024 Z " fill="rgb(230,230,230)"/><path d=" M 331.534 420.764 C 337.875 422.854 342.406 425.825 345.382 429.846 C 346.441 431.267 347.828 432.104 349.289 432.206 C 351.156 432.344 352.682 432.049 353.829 431.328 L 353.829 431.328 C 354.427 430.956 354.835 430.156 354.895 429.239 C 354.966 428.307 354.672 427.394 354.128 426.855 L 339.088 411.778 L 332.699 415.378 L 331.209 417.478 C 330.882 417.939 330.727 418.589 330.791 419.235 C 330.855 419.881 331.13 420.447 331.534 420.764 L 331.534 420.764 Z " fill="rgb(230,230,230)"/><path d=" M 312.018 179.443 L 269.027 178.882 C 269.135 170.06 270.592 161.397 273.776 153.644 C 275.868 148.553 275.823 143.012 275.319 138.344 C 274.541 131.14 276.35 123.769 280.369 119.183 C 283.44 115.673 287.317 113.866 291.269 114.102 L 292.103 114.151 C 297.629 114.475 302.658 118.736 305.451 125.462 C 306.848 128.995 307.411 133.062 307.059 137.076 C 306.787 140.852 307.439 144.667 308.964 148.519 C 311.595 156.976 312.165 167.798 312.018 179.443 Z " fill="rgb(47,46,65)"/><path d=" M 340.781 412.564 L 332.343 415.665 L 291.257 289.553 L 293.825 412.564 L 285.387 412.564 C 276.371 354.691 260.094 287.899 267.412 266.812 L 311.066 263.194 L 340.781 412.564 Z " fill="rgb(108,99,255)"/><ellipse vector-effect="non-scaling-stroke" cx="290.8898856864564" cy="142.25059658160055" rx="11.372147588200903" ry="16.022402861836838" fill="rgb(255,185,185)"/><path d=" M 300.795 171.711 L 282.086 170.161 C 283.919 164.231 284.652 158.522 283.92 153.104 L 297.86 153.104 C 297.828 157.264 299.297 164.459 300.795 171.711 Z " fill="rgb(255,185,185)"/><path d=" M 312.534 267.845 L 271.447 271.981 L 275.666 169.385 L 282.819 166.543 L 290.89 169.127 L 298.96 163.441 L 304.096 166.026 L 312.534 267.845 L 312.534 267.845 Z " fill="rgb(108,99,255)"/><path d=" M 278.417 341.755 L 250.354 332.71 C 258.698 293.723 273.732 204.53 268.879 172.745 L 283.553 163.442 L 278.417 341.755 Z " fill="rgb(230,230,230)"/><path d=" M 264.844 229.082 L 254.206 219.778 L 263.278 182.34 C 264.29 178.477 266.228 175.234 268.758 173.17 L 271.814 170.677 L 269.98 208.408 L 264.844 229.082 Z " fill="rgb(230,230,230)"/><path d=" M 336.929 333.227 C 328.071 340.447 305.931 344.472 296.209 339.429 C 295.494 304.204 294.091 204.563 298.594 162.408 L 314.735 171.711 L 313.267 199.621 C 305.551 223.497 327.958 306.655 336.929 333.227 Z " fill="rgb(230,230,230)"/><path d=" M 335.645 224.43 L 325.74 219.778 L 312.534 198.587 L 314.735 171.711 L 336.745 215.127 L 335.645 224.43 L 335.645 224.43 Z " fill="rgb(230,230,230)"/><path d=" M 304.603 244.548 C 304.941 246.634 306.413 247.942 307.895 247.472 L 316.302 244.79 L 315.087 237.228 L 306.679 239.911 C 305.197 240.384 304.268 242.46 304.603 244.548 L 304.603 244.548 Z " fill="rgb(255,185,185)"/><path d=" M 300.795 138.116 C 294.478 134.456 288.24 134.192 282.086 137.599 L 279.518 124.678 L 302.996 124.678 L 300.795 138.116 Z " fill="rgb(47,46,65)"/><path d=" M 312.167 235.801 L 316.936 248.205 C 324.957 245.053 331.909 235.116 338.58 223.396 L 336.745 215.127 L 325.373 219.261 L 312.167 235.801 Z " fill="rgb(230,230,230)"/><path d=" M 308.682 210.217 L 307.214 210.217 C 307.214 180.976 302.941 160.599 298.777 160.599 L 298.41 158.531 C 302.145 158.531 304.526 167.012 305.865 174.127 C 307.682 183.772 308.682 196.589 308.682 210.217 Z " fill="rgb(63,61,86)"/><path d=" M 274.932 202.981 L 273.465 202.981 C 273.465 176.201 277.768 159.565 284.103 159.565 L 283.736 161.633 C 279.354 161.633 274.932 174.418 274.932 202.981 Z " fill="rgb(63,61,86)"/><ellipse vector-effect="non-scaling-stroke" cx="307.9481030081727" cy="210.7334338666845" rx="3.668434050938174" ry="5.1685161294596185" fill="rgb(63,61,86)"/><path d=" M 269.063 215.385 L 267.595 215.385 C 267.595 207.975 270.557 201.947 274.199 201.947 L 274.199 204.014 C 271.367 204.014 269.063 209.115 269.063 215.385 Z " fill="rgb(63,61,86)"/><path d=" M 280.802 215.385 L 279.334 215.385 C 279.334 209.115 277.03 204.014 274.199 204.014 L 274.199 201.947 C 277.84 201.947 280.802 207.975 280.802 215.385 Z " fill="rgb(63,61,86)"/><ellipse vector-effect="non-scaling-stroke" cx="280.06800422104254" cy="215.9019499961441" rx="1.4673736203752696" ry="2.067406451783853" fill="rgb(63,61,86)"/><ellipse vector-effect="non-scaling-stroke" cx="268.3290152580404" cy="215.9019499961441" rx="1.4673736203752696" ry="2.067406451783853" fill="rgb(63,61,86)"/><path d=" M 249.987 196.891 L 259.142 199.194 L 280.068 241.116 L 268.951 237.43 L 249.987 196.891 L 249.987 196.891 Z " fill="rgb(108,99,255)"/><path d=" M 248.363 196.378 C 248.079 196.384 247.82 196.607 247.687 196.961 C 247.553 197.315 247.568 197.743 247.724 198.077 L 267.284 239.891 C 267.394 240.125 267.562 240.291 267.755 240.355 L 276.856 243.372 C 277.17 243.476 277.498 243.296 277.678 242.919 C 277.859 242.542 277.856 242.047 277.67 241.675 L 256.194 198.652 C 256.077 198.416 255.897 198.254 255.695 198.204 L 248.51 196.396 C 248.461 196.384 248.412 196.378 248.363 196.378 L 248.363 196.378 Z " fill="rgb(63,61,86)"/><path d=" M 260.565 226.274 L 261.108 233.989 L 269.687 232.789 C 271.199 232.578 272.303 230.679 272.153 228.549 C 272.003 226.419 270.656 224.863 269.143 225.074 L 260.565 226.274 Z " fill="rgb(255,185,185)"/><path d=" M 253.105 225.38 C 253.131 230.856 256.287 235.278 260.173 235.284 L 261.584 235.284 L 262.611 223.226 L 254.108 218.914 L 253.105 225.38 Z " fill="rgb(230,230,230)"/><rect x="381.704" y="102.384" width="167.296" height="124.146" transform="matrix(1,0,0,1,0,0)" fill="rgb(230,230,230)"/><path d=" M 386.577 219.665 L 544.127 219.665 L 544.127 109.249 L 386.577 109.249 L 386.577 219.665 Z " fill="rgb(255,255,255)"/><rect x="398.758" y="125.268" width="56.036" height="78.95" transform="matrix(1,0,0,1,0,0)" fill="rgb(63,61,86)"/><ellipse vector-effect="non-scaling-stroke" cx="441.39449611217134" cy="159.02174990471008" rx="1.624234020948336" ry="2.2884096098556483" fill="rgb(108,99,255)"/><ellipse vector-effect="non-scaling-stroke" cx="435.303618533615" cy="151.01231627021528" rx="1.624234020948336" ry="2.2884096098556483" fill="rgb(108,99,255)"/><path d=" M 434.492 159.022 C 433.894 159.022 433.308 159.256 432.799 159.697 C 432.351 158.748 431.824 157.877 431.23 157.102 C 431.237 156.98 431.243 156.858 431.243 156.733 C 431.244 154.898 430.466 153.239 429.267 152.521 C 428.067 151.803 426.68 152.165 425.742 153.44 C 424.872 153.266 423.99 153.255 423.118 153.408 C 423.119 153.372 423.122 153.337 423.122 153.301 C 423.124 151.19 422.101 149.351 420.645 148.849 C 419.19 148.348 417.68 149.313 416.99 151.187 C 416.3 153.06 416.609 155.356 417.738 156.744 C 417.194 157.4 416.701 158.135 416.266 158.937 C 415.164 157.645 413.591 157.524 412.396 158.638 C 411.2 159.753 410.665 161.839 411.078 163.773 C 411.491 165.708 412.755 167.031 414.189 167.031 L 414.199 167.03 C 414.194 167.221 414.189 167.411 414.189 167.603 C 414.189 168.755 414.287 169.902 414.482 171.02 C 411.82 172.432 410.206 176.253 410.595 180.223 C 410.985 184.193 413.273 187.254 416.108 187.596 C 418.942 187.937 421.566 185.468 422.429 181.649 C 424.688 182.261 427.028 181.772 429.064 180.262 C 429.637 182.16 431.038 183.284 432.488 183.009 C 433.939 182.734 435.079 181.127 435.275 179.084 C 435.47 177.041 434.672 175.066 433.325 174.26 C 434.028 172.379 434.423 170.299 434.481 168.175 L 434.492 168.175 C 436.286 168.175 437.74 166.126 437.74 163.599 C 437.74 161.071 436.286 159.022 434.492 159.022 L 434.492 159.022 Z " fill="rgb(108,99,255)"/><rect x="417.437" y="123.551" width="16.242" height="3.433" transform="matrix(1,0,0,1,0,0)" fill="rgb(230,230,230)"/><rect x="470.225" y="125.268" width="56.036" height="78.95" transform="matrix(1,0,0,1,0,0)" fill="rgb(63,61,86)"/><ellipse vector-effect="non-scaling-stroke" cx="508.88141968257565" cy="177.78670870552648" rx="0.7309053094267597" ry="1.0297843244350418" fill="rgb(108,99,255)"/><ellipse vector-effect="non-scaling-stroke" cx="506.1405247722252" cy="174.18246357000388" rx="0.7309053094267597" ry="1.0297843244350418" fill="rgb(108,99,255)"/><path d=" M 505.775 177.787 C 505.506 177.787 505.242 177.892 505.013 178.091 C 504.812 177.663 504.575 177.271 504.307 176.923 C 504.31 176.868 504.313 176.813 504.313 176.757 C 504.314 175.931 503.963 175.184 503.424 174.861 C 502.884 174.538 502.26 174.701 501.838 175.275 C 501.446 175.197 501.049 175.192 500.657 175.26 C 500.657 175.244 500.659 175.228 500.659 175.212 C 500.66 174.262 500.199 173.435 499.544 173.209 C 498.889 172.983 498.21 173.418 497.899 174.261 C 497.589 175.104 497.728 176.137 498.236 176.762 C 497.991 177.057 497.769 177.388 497.574 177.749 C 497.078 177.167 496.37 177.113 495.832 177.614 C 495.294 178.116 495.053 179.055 495.239 179.925 C 495.425 180.795 495.994 181.391 496.639 181.391 L 496.643 181.391 C 496.641 181.476 496.639 181.562 496.639 181.648 C 496.639 182.167 496.683 182.683 496.771 183.186 C 495.573 183.821 494.847 185.541 495.022 187.327 C 495.197 189.114 496.227 190.491 497.502 190.645 C 498.778 190.799 499.959 189.688 500.347 187.969 C 501.364 188.244 502.417 188.024 503.333 187.345 C 503.59 188.199 504.221 188.705 504.874 188.581 C 505.526 188.457 506.04 187.734 506.127 186.815 C 506.215 185.895 505.856 185.006 505.25 184.644 C 505.567 183.797 505.744 182.862 505.77 181.906 L 505.775 181.906 C 506.582 181.906 507.237 180.984 507.237 179.846 C 507.237 178.709 506.582 177.787 505.775 177.787 L 505.775 177.787 Z " fill="rgb(108,99,255)"/><ellipse vector-effect="non-scaling-stroke" cx="514.6157048030027" cy="158.24466893246725" rx="0.7309053094268165" ry="1.0297843244350418" fill="rgb(108,99,255)"/><ellipse vector-effect="non-scaling-stroke" cx="516.3351067558236" cy="153.55054583615487" rx="0.7309053094268165" ry="1.0297843244350418" fill="rgb(108,99,255)"/><path d=" M 513.774 154.032 C 513.701 153.667 513.557 153.338 513.359 153.082 C 513.597 152.692 513.8 152.264 513.966 151.807 C 514.004 151.797 514.043 151.786 514.081 151.77 C 514.645 151.547 515.06 150.87 515.135 150.05 C 515.209 149.231 514.929 148.428 514.422 148.012 C 514.37 147.46 514.266 146.92 514.112 146.406 C 514.123 146.402 514.135 146.4 514.146 146.395 C 514.795 146.139 515.235 145.291 515.212 144.341 C 515.189 143.392 514.708 142.588 514.047 142.396 C 513.387 142.203 512.719 142.671 512.43 143.53 C 512.162 143.278 511.876 143.067 511.577 142.899 C 511.839 142.069 511.685 141.094 511.196 140.501 C 510.708 139.907 510.001 139.835 509.457 140.323 C 508.913 140.811 508.66 141.744 508.835 142.619 L 508.836 142.625 C 508.777 142.645 508.718 142.665 508.659 142.688 C 508.305 142.829 507.964 143.029 507.644 143.285 C 506.885 141.832 505.514 141.313 504.341 142.035 C 503.168 142.757 502.506 144.527 502.746 146.298 C 502.987 148.07 504.066 149.37 505.346 149.43 C 505.433 150.884 505.869 152.252 506.582 153.311 C 506.068 153.891 505.893 154.884 506.155 155.736 C 506.416 156.587 507.049 157.087 507.701 156.957 C 508.353 156.827 508.863 156.099 508.947 155.179 C 509.611 155.379 510.298 155.366 510.958 155.142 L 510.959 155.149 C 511.101 155.857 511.5 156.406 512.006 156.588 C 512.512 156.769 513.049 156.556 513.414 156.029 C 513.778 155.502 513.916 154.74 513.774 154.032 L 513.774 154.032 Z " fill="rgb(108,99,255)"/><ellipse vector-effect="non-scaling-stroke" cx="486.3066620532804" cy="144.2509183056715" rx="0.7309053094267597" ry="1.0297843244350418" fill="rgb(108,99,255)"/><ellipse vector-effect="non-scaling-stroke" cx="482.5694051462897" cy="144.67277517520037" rx="0.7309053094267597" ry="1.0297843244350418" fill="rgb(108,99,255)"/><path d=" M 484.212 147.483 C 484.031 147.763 483.908 148.108 483.858 148.481 C 483.498 148.402 483.133 148.385 482.77 148.428 C 482.743 148.388 482.716 148.348 482.687 148.31 C 482.254 147.752 481.627 147.614 481.094 147.957 C 480.56 148.301 480.225 149.06 480.241 149.886 C 479.936 150.241 479.666 150.651 479.437 151.105 C 479.429 151.094 479.422 151.082 479.413 151.071 C 478.916 150.43 478.172 150.351 477.612 150.88 C 477.052 151.409 476.822 152.409 477.054 153.301 C 477.287 154.192 477.922 154.744 478.592 154.637 C 478.582 155.09 478.605 155.544 478.663 155.991 C 478.024 156.115 477.518 156.815 477.418 157.713 C 477.318 158.61 477.648 159.494 478.229 159.888 C 478.811 160.281 479.507 160.091 479.942 159.42 L 479.945 159.415 C 479.988 159.475 480.031 159.535 480.077 159.593 C 480.348 159.943 480.649 160.244 480.972 160.492 C 480.497 162.167 480.908 164.082 481.963 165.104 C 483.018 166.127 484.434 165.984 485.375 164.76 C 486.315 163.537 486.529 161.559 485.89 159.997 C 486.72 159.124 487.314 157.88 487.576 156.469 C 488.197 156.777 488.888 156.461 489.263 155.699 C 489.638 154.936 489.605 153.915 489.182 153.203 C 488.759 152.492 488.051 152.267 487.453 152.653 C 487.222 151.753 486.852 150.937 486.368 150.265 L 486.371 150.26 C 486.724 149.717 486.845 148.95 486.687 148.248 C 486.529 147.545 486.117 147.016 485.606 146.858 C 485.096 146.7 484.564 146.939 484.212 147.483 L 484.212 147.483 Z " fill="rgb(108,99,255)"/><rect x="488.903" y="123.551" width="16.242" height="3.433" transform="matrix(1,0,0,1,0,0)" fill="rgb(230,230,230)"/><path d=" M 212.223 394.295 C 218.078 405.343 230.233 406.506 230.233 406.506 C 230.233 406.506 232.894 389.756 227.038 378.708 C 221.183 367.66 209.029 366.498 209.029 366.498 C 209.029 366.498 206.368 383.247 212.223 394.295 Z " fill="rgb(122,200,102)"/><path d=" M 242.051 398.448 C 238.187 405.738 230.167 406.506 230.167 406.506 C 230.167 406.506 228.411 395.453 232.275 388.163 C 236.138 380.873 244.159 380.106 244.159 380.106 C 244.159 380.106 245.915 391.158 242.051 398.448 Z " fill="rgb(128,181,96)"/><rect x="202" y="431.718" width="210.97" height="1.282" transform="matrix(1,0,0,1,0,0)" fill="rgb(63,61,86)"/></g><g><path d=" M 597.696 319.78 C 603.39 289.845 598.214 258.36 585.644 235.627 L 477.728 275.463 L 580.265 226.947 C 529.324 156.712 447.45 222.772 464.123 319.47 L 597.696 319.78 Z " fill="rgb(230,230,230)"/><ellipse vector-effect="non-scaling-stroke" cx="412.33935728155643" cy="171.79696926845367" rx="30.192029754106727" ry="42.443808246908475" fill="rgb(230,230,230)"/><path d=" M 452.595 187.344 L 430.587 187.344 C 429.085 175.139 429.085 162.661 430.587 150.455 L 452.595 150.455 C 450.116 162.505 450.116 175.295 452.595 187.344 L 452.595 187.344 Z " fill="rgb(255,101,132)"/><path d=" M 447.712 160.447 L 434.32 160.447 C 434.088 160.447 433.901 160.024 433.901 159.501 C 433.901 158.978 434.088 158.554 434.32 158.554 L 447.712 158.554 C 447.943 158.554 448.131 158.978 448.131 159.501 C 448.131 160.024 447.943 160.447 447.712 160.447 Z " fill="rgb(255,255,255)"/><path d=" M 447.712 169.225 L 434.32 169.225 C 434.088 169.225 433.901 168.802 433.901 168.279 C 433.901 167.756 434.088 167.333 434.32 167.333 L 447.712 167.333 C 447.943 167.333 448.131 167.756 448.131 168.279 C 448.131 168.802 447.943 169.225 447.712 169.225 Z " fill="rgb(255,255,255)"/><path d=" M 384.212 149.909 L 412.566 149.909 C 414.5 134.184 414.5 118.108 412.566 102.384 L 384.212 102.384 C 387.406 117.907 387.406 134.385 384.212 149.909 L 384.212 149.909 Z " fill="rgb(108,99,255)"/><path d=" M 408.092 116.23 L 390.838 116.23 C 390.54 116.23 390.299 115.685 390.299 115.011 C 390.299 114.337 390.54 113.792 390.838 113.792 L 408.092 113.792 C 408.39 113.792 408.631 114.337 408.631 115.011 C 408.631 115.685 408.39 116.23 408.092 116.23 Z " fill="rgb(255,255,255)"/><path d=" M 408.092 127.54 L 390.838 127.54 C 390.54 127.54 390.299 126.994 390.299 126.32 C 390.299 125.647 390.54 125.101 390.838 125.101 L 408.092 125.101 C 408.39 125.101 408.631 125.647 408.631 126.32 C 408.631 126.994 408.39 127.54 408.092 127.54 Z " fill="rgb(255,255,255)"/><path d=" M 408.092 138.849 L 390.838 138.849 C 390.54 138.849 390.299 138.304 390.299 137.63 C 390.299 136.956 390.54 136.411 390.838 136.411 L 408.092 136.411 C 408.39 136.411 408.631 136.956 408.631 137.63 C 408.631 138.304 408.39 138.849 408.092 138.849 Z " fill="rgb(255,255,255)"/><path d=" M 365.481 223.792 L 393.835 223.792 C 395.77 208.067 395.77 191.992 393.835 176.267 L 365.481 176.267 C 368.676 191.791 368.676 208.269 365.481 223.792 L 365.481 223.792 Z " fill="rgb(108,99,255)"/><path d=" M 389.362 190.114 L 372.108 190.114 C 371.81 190.114 371.569 189.568 371.569 188.895 C 371.569 188.221 371.81 187.676 372.108 187.676 L 389.362 187.676 C 389.659 187.676 389.901 188.221 389.901 188.895 C 389.901 189.568 389.659 190.114 389.362 190.114 Z " fill="rgb(255,255,255)"/><path d=" M 389.362 201.423 L 372.108 201.423 C 371.81 201.423 371.569 200.878 371.569 200.204 C 371.569 199.53 371.81 198.985 372.108 198.985 L 389.362 198.985 C 389.659 198.985 389.901 199.53 389.901 200.204 C 389.901 200.878 389.659 201.423 389.362 201.423 Z " fill="rgb(255,255,255)"/><path d=" M 514.148 306.476 L 518.237 296.828 L 512.459 293.579 L 511.93 294.53 C 510.607 296.907 509.425 301.929 507.819 303.881" fill="rgb(255,184,184)"/><path d=" M 516.107 307.999 L 515.908 316.378 C 515.869 318.023 514.903 319.324 513.732 319.307 L 509.224 319.245 L 504.14 319.245 C 504.14 319.245 494.665 318.92 494.202 313.722 C 494.048 311.989 495.101 310.834 496.573 310.064 C 500.11 308.229 503.421 305.626 506.385 302.35 C 507.1 301.545 508.068 301.343 508.918 301.82 L 514.787 305.148 C 515.61 305.614 516.137 306.753 516.107 307.999 Z " fill="rgb(47,46,65)"/><ellipse vector-effect="non-scaling-stroke" cx="505.52180397490497" cy="305.7045794636841" rx="0.46219709987155966" ry="0.649754429860991" fill="rgb(255,255,255)"/><ellipse vector-effect="non-scaling-stroke" cx="507.00648335697514" cy="303.4388977681459" rx="0.46219709987155966" ry="0.649754429860991" fill="rgb(255,255,255)"/><path d=" M 559.833 293.762 L 557.871 282.876 L 552.151 286.322 L 552.255 287.52 C 552.515 290.516 554.206 295.241 554.051 298.219" fill="rgb(255,184,184)"/><path d=" M 561.975 292.879 L 565.965 298.875 C 566.816 300.155 566.785 302.156 565.895 303.382 L 562.773 307.686 L 559.178 312.74 C 559.178 312.74 552.315 321.929 549.373 318.712 C 548.393 317.64 548.556 315.777 549.21 313.769 C 550.798 308.925 551.833 303.759 552.275 298.461 C 552.371 297.243 552.925 296.191 553.727 295.708 L 559.628 292.181 C 560.437 291.697 561.375 291.976 561.975 292.879 L 561.975 292.879 Z " fill="rgb(47,46,65)"/><ellipse vector-effect="non-scaling-stroke" cx="553.3446628177782" cy="301.7915118155719" rx="0.46219709987155966" ry="0.649754429860991" fill="rgb(255,255,255)"/><ellipse vector-effect="non-scaling-stroke" cx="553.2548665435404" cy="298.7135916650393" rx="0.46219709987155966" ry="0.649754429860991" fill="rgb(255,255,255)"/><path d=" M 525.17 157.131 L 527.712 167.202 L 534.414 161.679 C 534.414 161.679 530.947 155.831 531.178 152.582 L 525.17 157.131 Z " fill="rgb(255,184,184)"/><ellipse vector-effect="non-scaling-stroke" cx="525.9784438540548" cy="149.49602291552353" rx="6.470767310232532" ry="9.096573140748006" fill="rgb(255,184,184)"/><path d=" M 535.338 160.379 L 533.982 160.912 C 533.982 160.912 531.178 160.704 529.792 163.628 C 529.792 163.628 527.379 165.884 527.379 165.884 L 521.703 177.923 C 521.703 177.923 519.854 182.796 520.548 188.319 C 520.548 188.319 523.552 201.639 523.552 201.639 C 523.552 201.639 538.342 203.588 538.804 202.614 C 538.804 202.614 538.804 195.141 538.804 195.141 L 540.653 166.227 C 540.653 166.227 538.573 161.354 537.418 161.354 C 536.672 161.319 535.95 160.98 535.338 160.379 Z " fill="rgb(108,99,255)"/><path d=" M 539.96 200.664 C 539.96 200.664 536.031 200.339 534.414 200.989 C 534.414 200.989 523.09 200.989 523.09 200.989 L 520.317 225.355 L 511.304 294.229 L 521.01 299.427 L 532.565 260.767 L 533.951 266.29 L 551.515 293.254 L 560.759 287.407 L 545.506 251.67 L 540.653 226.654 C 540.653 226.654 543.658 212.36 539.498 203.588 L 539.96 200.664 Z " fill="rgb(47,46,65)"/><g opacity="0.2"><rect x="528.046" y="226.207" width="0.486" height="34.682" transform="matrix(0.898,-0.441,0.247,0.993,-6.023,234.446)" fill="rgb(0,0,0)"/></g><path d=" M 537.967 135.138 C 537.599 133.091 536.368 131.762 535.219 132.171 C 535.206 132.176 535.194 132.183 535.181 132.188 C 535.311 132.086 535.45 132.009 535.594 131.957 C 536.744 131.549 537.974 132.877 538.342 134.924 C 538.706 136.948 538.09 138.915 536.965 139.354 C 537.847 138.667 538.288 136.924 537.967 135.138 Z " fill="rgb(47,46,65)"/><path d=" M 537.696 138.324 C 538.856 136.982 539.186 134.851 538.432 133.564 C 538.424 133.549 538.414 133.537 538.405 133.523 C 538.526 133.645 538.635 133.788 538.73 133.95 C 539.483 135.237 539.154 137.368 537.993 138.71 C 536.847 140.036 535.319 140.092 534.556 138.849 C 535.374 139.676 536.684 139.494 537.696 138.324 Z " fill="rgb(47,46,65)"/><path d=" M 534.926 139.478 C 533.655 138.356 533.134 136.299 533.765 134.888 C 534.395 133.478 535.938 133.243 537.21 134.365 C 538.481 135.487 539.002 137.544 538.371 138.955 C 537.741 140.366 536.197 140.6 534.926 139.478 Z " fill="rgb(47,46,65)"/><path d=" M 533.833 137.905 C 534.442 137.905 535.039 138.151 535.551 138.614 C 536.001 139.005 536.377 139.545 536.644 140.187 C 536.035 140.187 535.439 139.941 534.926 139.478 C 534.476 139.087 534.101 138.547 533.833 137.905 Z " fill="rgb(108,99,255)"/><path d=" M 525.055 136.501 L 525.055 136.501 C 524.073 136.501 523.765 137.726 523.951 139.01 C 525.017 146.203 524.597 153.673 522.743 160.542 L 528.68 160.542 L 529.792 156.844 L 530.222 160.542 L 537.996 160.542 L 537.996 156.812 C 540.612 141.706 535.064 134.334 525.055 136.501 Z " fill="rgb(47,46,65)"/><path d=" M 524.081 136.826 L 523.485 136.826 C 522.307 136.826 521.178 137.483 520.346 138.654 C 519.513 139.824 519.045 141.411 519.045 143.066 L 519.045 145.273 L 522.919 144.609 L 523.205 142.998 L 523.475 144.513 L 528.521 143.648 L 528.521 143.066 C 528.521 141.411 528.053 139.824 527.22 138.654 C 526.388 137.483 525.259 136.826 524.081 136.826 L 524.081 136.826 Z " fill="rgb(47,46,65)"/><g opacity="0.2"><path d=" M 533.863 177.04 L 531.552 201.081 L 529.128 201.259 L 533.863 177.04 L 533.863 177.04 Z " fill="rgb(0,0,0)"/></g><path d=" M 531.474 205.985 L 526.882 225.35 C 526.882 225.35 517.316 240.412 522.673 240.412 C 528.03 240.412 530.708 226.964 530.708 226.964 L 537.213 207.599 L 531.474 205.985 Z " fill="rgb(255,184,184)"/><path d=" M 536.257 162.146 C 536.257 162.146 539.369 160.252 541.258 165.02 C 541.258 165.02 542.379 187.965 541.996 190.655 C 541.996 190.655 538.935 210.02 538.935 210.02 L 529.752 207.33 C 529.752 207.33 528.986 199.799 531.282 200.337 L 536.257 162.146 Z " fill="rgb(108,99,255)"/><rect x="365" y="319.169" width="234.196" height="0.831" transform="matrix(1,0,0,1,0,0)" fill="rgb(63,61,86)"/></g></g></svg>