<?xml version="1.0" encoding="UTF-8" standalone="no"?><!-- Generator: Gravit.io --><svg xmlns="http://www.w3.org/2000/svg" xmlns:xlink="http://www.w3.org/1999/xlink" style="isolation:isolate" viewBox="0 0 600 600" width="600pt" height="600pt"><defs><clipPath id="_clipPath_xAHWiBQl0YxPNx9EtFGVHVMz3Xsl9n3e"><rect width="600" height="600"/></clipPath></defs><g clip-path="url(#_clipPath_xAHWiBQl0YxPNx9EtFGVHVMz3Xsl9n3e)"><linearGradient id="_lgradient_0" x1="0" y1="0.5" x2="1" y2="0.5"><stop offset="0%" style="stop-color:#2E0E99"/><stop offset="73.91304347826086%" style="stop-color:#BB184C"/><stop offset="100%" style="stop-color:#000000"/></linearGradient><rect width="600" height="600" style="fill:url(#_lgradient_0);"/><path d="M 238.334 -0.752 L 334.431 -0.752 C 350.086 -0.752 362.795 11.957 362.795 27.611 L 362.795 53.034 C 362.795 68.689 350.086 81.398 334.431 81.398 L 238.334 81.398 C 222.679 81.398 209.97 68.689 209.97 53.034 L 209.97 27.611 C 209.97 11.957 222.679 -0.752 238.334 -0.752 Z" style="stroke:none;fill:#1A011E;stroke-miterlimit:10;"/><path d="M 228.664 565.471 L 252.161 566.667 C 268.834 567.515 281.682 581.74 280.834 598.414 L 272.782 756.692 C 271.934 773.365 257.709 786.214 241.035 785.365 L 217.538 784.17 C 200.865 783.322 188.016 769.096 188.865 752.423 L 196.917 594.145 C 197.765 577.471 211.99 564.623 228.664 565.471 Z" style="stroke:none;fill:#0F0D0D;stroke-miterlimit:10;"/><defs><linearGradient id="_lgradient_1" x1="0" y1="0.5" x2="1" y2="0.5"><stop offset="49.56521739130435%" style="stop-color:#020202"/><stop offset="68.69565217391305%" style="stop-color:#6611C1"/></linearGradient><linearGradient id="_lgradient_2" x1="0" y1="0.5" x2="1" y2="0.5"><stop offset="49.56521739130435%" style="stop-color:#020202"/><stop offset="68.69565217391305%" style="stop-color:#6611C1"/></linearGradient></defs><g style="mix-blend-mode:normal;" opacity="0.7"><path d="M 286.072 183.267 L 289.27 183.267 C 359.585 183.267 416.671 240.353 416.671 310.668 L 416.671 445.332 C 416.671 515.647 359.585 572.733 289.27 572.733 L 286.072 572.733 C 215.758 572.733 158.671 515.647 158.671 445.332 L 158.671 310.668 C 158.671 240.353 215.758 183.267 286.072 183.267 Z" style="stroke:none;fill:url(#_lgradient_2);stroke-miterlimit:10;"/></g><path d=" M 220.423 84.878 L 220.423 83.419 C 220.423 78.346 216.305 74.227 211.232 74.227 L 211.232 74.227 C 206.158 74.227 202.04 78.346 202.04 83.419 L 202.04 117.035 C 202.04 122.108 206.158 126.227 211.232 126.227 L 211.232 126.227 C 216.305 126.227 220.423 122.108 220.423 117.035 L 220.423 115.576 C 220.423 121.455 225.196 126.227 231.074 126.227 L 231.074 126.227 C 236.953 126.227 241.725 121.455 241.725 115.576 L 241.725 84.878 C 241.725 79 236.953 74.227 231.074 74.227 L 231.074 74.227 C 225.196 74.227 220.423 79 220.423 84.878 Z " fill-rule="evenodd" fill="rgb(98,14,14)"/><path d=" M 349.423 83.645 L 349.423 82.186 C 349.423 77.113 345.305 72.994 340.232 72.994 L 340.232 72.994 C 335.158 72.994 331.04 77.113 331.04 82.186 L 331.04 115.803 C 331.04 120.876 335.158 124.994 340.232 124.994 L 340.232 124.994 C 345.305 124.994 349.423 120.876 349.423 115.803 L 349.423 114.344 C 349.423 120.222 354.196 124.994 360.074 124.994 L 360.074 124.994 C 365.953 124.994 370.725 120.222 370.725 114.344 L 370.725 83.645 C 370.725 77.767 365.953 72.994 360.074 72.994 L 360.074 72.994 C 354.196 72.994 349.423 77.767 349.423 83.645 Z " fill-rule="evenodd" fill="rgb(98,14,14)"/><defs><linearGradient id="_lgradient_3" x1="0" y1="0.5" x2="1" y2="0.5"><stop offset="26.08695652173913%" style="stop-color:#150A0A"/><stop offset="69.1304347826087%" style="stop-color:#000000"/><stop offset="100%" style="stop-color:#000000"/></linearGradient></defs><path d="M 279.933 30 L 292.833 30 C 324.871 30 350.883 56.011 350.883 88.05 L 350.883 172.95 C 350.883 204.989 324.871 231 292.833 231 L 279.933 231 C 247.894 231 221.883 204.989 221.883 172.95 L 221.883 88.05 C 221.883 56.011 247.894 30 279.933 30 Z" style="stroke:none;fill:url(#_lgradient_3);stroke-miterlimit:10;"/><path d=" M 294 97 C 294 109.694 304.53 120 317.5 120 C 330.47 120 341 109.694 341 97 C 341 84.306 330.47 74 317.5 74 C 304.53 74 294 84.306 294 97 Z " fill="rgb(31,31,55)"/><path d=" M 309 97.585 C 309 102.464 312.809 106.425 317.5 106.425 C 322.191 106.425 326 102.464 326 97.585 C 326 92.706 322.191 88.745 317.5 88.745 C 312.809 88.745 309 92.706 309 97.585 Z " fill="rgb(235,235,244)"/><path d=" M 280.832 100.131 C 281.566 86.351 272.604 74.654 260.831 74.026 C 249.057 73.399 238.903 84.077 238.168 97.858 C 237.434 111.638 246.396 123.335 258.169 123.963 C 269.943 124.59 280.097 113.912 280.832 100.131 Z " fill="rgb(255,0,0)"/><path d=" M 269.668 100.794 C 270.005 94.465 265.514 89.072 259.646 88.76 C 253.777 88.447 248.739 93.331 248.401 99.66 C 248.064 105.989 252.555 111.382 258.423 111.695 C 264.292 112.007 269.33 107.123 269.668 100.794 Z " fill="rgb(23,23,23)"/><linearGradient id="_lgradient_4" x1="0" y1="0.5" x2="1" y2="0.5" gradientTransform="matrix(13.245,-119.692,120.178,13.299,274.463,573.163)" gradientUnits="userSpaceOnUse"><stop offset="8.695652173913043%" stop-opacity="1" style="stop-color:rgb(206,14,0)"/><stop offset="67.82608695652173%" stop-opacity="1" style="stop-color:rgb(15,2,30)"/><stop offset="96.95652173913044%" stop-opacity="1" style="stop-color:rgb(164,22,74)"/></linearGradient><path d=" M 287.238 547.003 C 286.829 547.959 286.568 548.972 286.451 550.026 L 286.451 550.026 L 286.451 550.026 C 285.983 554.258 287.945 558.359 291.51 561.565 C 293.822 564.73 296.948 566.799 300.541 567.179 L 300.541 567.179 C 301.26 567.255 301.975 567.261 302.682 567.197 C 303.831 567.469 305.022 567.675 306.244 567.811 L 364.861 574.297 C 376.726 575.61 387.123 569.773 388.064 561.27 L 388.064 561.27 C 389.005 552.767 380.136 544.798 368.271 543.485 L 319.207 538.056 L 323.438 498.046 L 372.696 503.497 C 384.561 504.81 394.958 498.973 395.898 490.47 L 395.898 490.47 C 396.839 481.967 387.971 473.998 376.106 472.685 L 317.488 466.199 C 316.196 466.056 314.922 465.997 313.678 466.026 C 312.909 465.775 312.113 465.6 311.292 465.513 L 311.292 465.513 C 307.391 465.101 303.611 466.751 300.543 469.808 C 297.03 472.137 294.708 475.413 294.286 479.226 L 294.286 479.226 L 294.286 479.226 C 294.198 480.015 294.196 480.8 294.264 481.577 C 293.963 482.803 293.743 484.079 293.604 485.392 L 287.402 544.04 C 287.296 545.04 287.241 546.03 287.238 547.003 Z " fill-rule="evenodd" fill="url(#_lgradient_4)"/><linearGradient id="_lgradient_5" x1="0.5" y1="-3.885780586188048e-16" x2="-0.38820971191703935" y2="-0.11362320291847214" gradientTransform="matrix(-57.481,-1.184,1.543,-74.865,317.229,223.893)" gradientUnits="userSpaceOnUse"><stop offset="0.43478260869565216%" stop-opacity="1" style="stop-color:rgb(147,26,74)"/><stop offset="76.08695652173914%" stop-opacity="1" style="stop-color:rgb(130,121,6)"/></linearGradient><path d=" M 301.797 222.74 C 310.963 218.138 317.258 208.647 317.253 197.699 L 317.244 176.973 C 317.237 161.526 304.69 148.991 289.243 148.997 L 289.243 148.997 C 273.796 149.004 261.261 161.551 261.268 176.998 L 261.277 197.724 C 261.281 208.075 266.916 217.118 275.282 221.957 L 275.727 200.335 C 275.878 193.017 281.942 187.198 289.26 187.349 L 289.26 187.349 C 296.579 187.499 302.398 193.563 302.247 200.882 L 301.797 222.74 Z " fill-rule="evenodd" fill="url(#_lgradient_5)"/><path d=" M 411.685 160 L 447 144 L 447 144" fill="none" vector-effect="non-scaling-stroke" stroke-width="1" stroke="rgb(0,0,0)" stroke-linejoin="miter" stroke-linecap="square" stroke-miterlimit="3"/><defs><linearGradient id="_lgradient_6" x1="0" y1="0.5" x2="1" y2="0.5"><stop offset="34.34782608695652%" style="stop-color:#17052A"/><stop offset="85.65217391304348%" style="stop-color:#C12854"/></linearGradient></defs><path d="M 153.923 222.74 L 163.42 222.74 C 185.37 222.74 203.191 240.561 203.191 262.512 L 203.191 369.969 C 203.191 391.919 185.37 409.74 163.42 409.74 L 153.923 409.74 C 131.973 409.74 114.151 391.919 114.151 369.969 L 114.151 262.512 C 114.151 240.561 131.973 222.74 153.923 222.74 Z" style="stroke:none;fill:url(#_lgradient_6);stroke-miterlimit:10;"/><defs><linearGradient id="_lgradient_7" x1="0" y1="0.5" x2="1" y2="0.5"><stop offset="0%" style="stop-color:#AE2525"/><stop offset="85.65217391304348%" style="stop-color:#C12854"/></linearGradient></defs><path d="M 530.92 184.007 L 536.383 191.775 C 549.01 209.729 544.686 234.558 526.731 247.186 L 438.836 309.004 C 420.882 321.631 396.053 317.307 383.425 299.352 L 377.962 291.585 C 365.334 273.63 369.659 248.801 387.613 236.173 L 475.508 174.355 C 493.463 161.728 518.292 166.052 530.92 184.007 Z" style="stroke:none;fill:url(#_lgradient_7);stroke-miterlimit:10;"/><linearGradient id="_lgradient_8" x1="0" y1="0.5" x2="1" y2="0.5" gradientTransform="matrix(44.657,0,0,63,136.343,378)" gradientUnits="userSpaceOnUse"><stop offset="0%" stop-opacity="1" style="stop-color:rgb(155,43,43)"/><stop offset="76.08695652173914%" stop-opacity="1" style="stop-color:rgb(159,33,115)"/></linearGradient><ellipse vector-effect="non-scaling-stroke" cx="158.67136871921247" cy="409.5" rx="22.328631280787533" ry="31.5" fill="url(#_lgradient_8)"/><linearGradient id="_lgradient_9" x1="0" y1="0.5" x2="1" y2="0.5" gradientTransform="matrix(44.657,0,0,63,475.671,138.187)" gradientUnits="userSpaceOnUse"><stop offset="0%" stop-opacity="1" style="stop-color:rgb(155,43,43)"/><stop offset="76.08695652173914%" stop-opacity="1" style="stop-color:rgb(159,33,115)"/></linearGradient><ellipse vector-effect="non-scaling-stroke" cx="498" cy="169.68726014157212" rx="22.328631280787505" ry="31.5" fill="url(#_lgradient_9)"/><linearGradient id="_lgradient_10" x1="0" y1="0.5" x2="1" y2="0.5" gradientTransform="matrix(-50.733,81.468,-203.635,-126.811,369.539,501.922)" gradientUnits="userSpaceOnUse"><stop offset="0%" stop-opacity="1" style="stop-color:rgb(17,16,16)"/><stop offset="77.82608695652173%" stop-opacity="1" style="stop-color:rgb(183,31,173)"/></linearGradient><path d=" M 222.776 426.868 L 256.094 457.189 L 289.411 487.51 C 320.8 516.075 313.706 528.042 273.581 514.217 L 236.223 501.345 L 198.865 488.473 C 158.739 474.648 135.066 443.638 146.033 419.267 L 146.033 419.267 L 146.033 419.267 C 157.001 394.897 191.388 398.303 222.776 426.868 Z " fill="url(#_lgradient_10)"/><linearGradient id="_lgradient_11" x1="0" y1="0.5" x2="1" y2="0.5" gradientTransform="matrix(73.132,4.285,-12.179,207.856,488.914,-8.283)" gradientUnits="userSpaceOnUse"><stop offset="72.60869565217392%" stop-opacity="1" style="stop-color:rgb(11,10,10)"/><stop offset="96.95652173913044%" stop-opacity="1" style="stop-color:rgb(19,19,19)"/></linearGradient><path d=" M 484.505 164.571 L 499.587 96.627 L 514.668 28.682 C 518.957 9.364 524.684 9.588 527.45 29.182 L 536.481 93.16 L 545.513 157.138 C 548.279 176.732 534.53 194.142 514.829 195.994 L 513.63 196.106 L 512.432 196.219 C 492.731 198.07 480.217 183.889 484.505 164.571 Z " fill="url(#_lgradient_11)"/><path d="M 512.78 81.467 L 525.497 83.209 C 529.494 83.757 532.295 87.447 531.747 91.444 L 531.578 92.675 C 531.031 96.673 527.341 99.474 523.343 98.926 L 510.627 97.184 C 506.629 96.636 503.828 92.946 504.376 88.948 L 504.545 87.717 C 505.092 83.72 508.783 80.919 512.78 81.467 Z" style="stroke:none;fill:#C80B0B;stroke-miterlimit:10;"/><path d="M 508.466 103.377 L 527.504 105.986 C 533.408 106.794 537.544 112.244 536.735 118.148 L 536.506 119.818 C 535.697 125.722 530.248 129.858 524.344 129.05 L 505.306 126.441 C 499.402 125.632 495.266 120.183 496.075 114.279 L 496.304 112.608 C 497.113 106.705 502.562 102.568 508.466 103.377 Z" style="stroke:none;fill:#C81B1B;stroke-miterlimit:10;"/><path d="M 504.459 130.388 L 534.824 134.548 C 541.736 135.495 546.639 141.431 545.767 147.796 L 545.767 147.796 C 544.895 154.161 538.575 158.559 531.664 157.612 L 501.299 153.452 C 494.388 152.505 489.485 146.569 490.357 140.204 L 490.357 140.204 C 491.229 133.839 497.548 129.441 504.459 130.388 Z" style="stroke:none;fill:#DB1818;stroke-miterlimit:10;"/><g opacity="0.54"><linearGradient id="_lgradient_12" x1="0" y1="0.5" x2="1" y2="0.5" gradientTransform="matrix(60.201,0,0,139,270.839,286)" gradientUnits="userSpaceOnUse"><stop offset="28.695652173913043%" stop-opacity="1" style="stop-color:rgb(251,9,9)"/><stop offset="96.95652173913044%" stop-opacity="1" style="stop-color:rgb(36,1,0)"/></linearGradient><path d=" M 272.837 380.485 Q 268.841 287.735 272.837 286 L 326.04 301.522 L 272.837 337.967 L 331.04 372.732 Q 276.833 473.236 272.837 380.485 Z " fill="url(#_lgradient_12)" vector-effect="non-scaling-stroke" stroke-width="1" stroke="rgb(240,233,233)" stroke-linejoin="miter" stroke-linecap="square" stroke-miterlimit="3"/></g></g></svg>